<svg xmlns="http://www.w3.org/2000/svg" width="579" height="386" fill="none"><rect width="578" height="385" x=".5" y=".5" fill="#777" rx="26"/><rect width="574.23" height="381.865" x="2.5" y="2.5" fill="url(#a)" rx="25"/><rect width="471.463" height="353.756" x="54.531" y="16.803" fill="#2A2A2A" opacity=".1" rx="5"/><rect width="536" height="346" x="21.53" y="19.803" fill="#E8EAF6" rx="8"/><mask id="b" width="537" height="347" x="21" y="19" maskUnits="userSpaceOnUse" style="mask-type:luminance"><rect width="536" height="346" x="21.53" y="19.803" fill="#fff" rx="8"/></mask><g mask="url(#b)"><path fill="#5267DF" d="M18 20h547v59H18z"/><g fill="#fff"><circle cx="60" cy="50" r="16" opacity=".245"/><circle cx="521" cy="50" r="16" opacity=".104"/><rect width="120" height="6" x="91" y="40" opacity=".75" rx="3"/><rect width="64" height="6" x="91" y="54" opacity=".25" rx="3"/></g><rect width="261" height="316" x="78.531" y="112.803" fill="#fff" rx="8"/><rect width="128" height="316" x="373.53" y="112.803" fill="#fff" rx="8"/><rect width="120" height="6" x="157" y="151" fill="#242A45" opacity=".5" rx="3"/></g><circle cx="126" cy="161" r="16" fill="#F98E5D"/><rect width="88" height="6" x="394" y="135" fill="#242A45" opacity=".25" rx="3"/><rect width="88" height="6" x="394" y="155" fill="#242A45" opacity=".25" rx="3"/><rect width="88" height="6" x="394" y="175" fill="#242A45" opacity=".25" rx="3"/><rect width="88" height="6" x="394" y="195" fill="#242A45" opacity=".25" rx="3"/><rect width="88" height="6" x="394" y="229" fill="#242A45" opacity=".25" rx="3"/><rect width="88" height="6" x="394" y="249" fill="#242A45" opacity=".25" rx="3"/><rect width="88" height="6" x="394" y="269" fill="#242A45" opacity=".25" rx="3"/><rect width="64" height="6" x="157" y="165" fill="#242A45" opacity=".25" rx="3"/><circle cx="126" cy="217" r="16" fill="#6AC6D6"/><rect width="120" height="6" x="157" y="207" fill="#242A45" opacity=".5" rx="3"/><rect width="64" height="6" x="157" y="221" fill="#242A45" opacity=".25" rx="3"/><circle cx="126" cy="273" r="16" fill="#A47ED4"/><rect width="120" height="6" x="157" y="263" fill="#242A45" opacity=".5" rx="3"/><rect width="64" height="6" x="157" y="277" fill="#242A45" opacity=".25" rx="3"/><circle cx="126" cy="329" r="16" fill="#EC7878"/><rect width="120" height="6" x="157" y="319" fill="#242A45" opacity=".5" rx="3"/><rect width="64" height="6" x="157" y="333" fill="#242A45" opacity=".25" rx="3"/><defs><linearGradient id="a" x1="848.042" x2="508.325" y1="196.406" y2="-314.444" gradientUnits="userSpaceOnUse"><stop stop-color="#151515"/><stop offset="1" stop-color="#3D3D3D"/></linearGradient></defs></svg>